<svg xmlns="http://www.w3.org/2000/svg" xmlns:xlink="http://www.w3.org/1999/xlink" width="180" zoomAndPan="magnify" viewBox="0 0 135 135.000003" height="180" preserveAspectRatio="xMidYMid meet" version="1.0"><defs><clipPath id="b6bee19c4a"><path d="M 0.496094 0 L 134.503906 0 L 134.503906 134.007812 L 0.496094 134.007812 Z M 0.496094 0 " clip-rule="nonzero"/></clipPath><clipPath id="fc31130945"><path d="M 28.90625 10.765625 L 106.332031 10.765625 L 106.332031 123.183594 L 28.90625 123.183594 Z M 28.90625 10.765625 " clip-rule="nonzero"/></clipPath></defs><g clip-path="url(#b6bee19c4a)"><path fill="#ffffff" d="M 0.496094 0 L 134.503906 0 L 134.503906 134.007812 L 0.496094 134.007812 Z M 0.496094 0 " fill-opacity="1" fill-rule="nonzero"/><path fill="#1c2321" d="M 0.496094 0 L 134.503906 0 L 134.503906 134.007812 L 0.496094 134.007812 Z M 0.496094 0 " fill-opacity="1" fill-rule="nonzero"/></g><g clip-path="url(#fc31130945)"><path fill="#d42b2b" d="M 69.257812 72.117188 C 69.179688 72.25 68.984375 72.28125 68.90625 72.414062 C 68.613281 72.90625 69.230469 73.4375 69.792969 75.609375 C 71.238281 81.222656 70.355469 84.621094 70.296875 84.898438 C 68.996094 91.179688 65.769531 93.929688 64.214844 96.476562 C 63.632812 97.433594 63.175781 96.664062 63.152344 96.507812 C 63.128906 96.359375 63.992188 92.894531 62.203125 89.125 C 61.6875 88.03125 60.261719 86.246094 59.933594 85.9375 C 59.898438 85.90625 59.503906 85.535156 59.496094 85.535156 C 59.339844 85.566406 59.238281 85.722656 59.097656 85.792969 C 59.015625 85.832031 58.875 85.777344 58.835938 85.859375 C 58.8125 85.902344 59.109375 87.609375 58.734375 89.074219 C 57.753906 92.925781 55.601562 95.609375 54.589844 97.007812 C 48.359375 105.613281 49.90625 111.0625 50.695312 113.628906 C 51.109375 114.980469 52.28125 117.292969 53.003906 118.292969 C 54.105469 119.828125 54.332031 120.121094 54.84375 120.640625 C 56.382812 122.203125 56.503906 122.0625 56.796875 122.402344 C 57.160156 122.816406 57.265625 123.003906 56.761719 123.230469 C 56.566406 123.316406 55.519531 122.859375 55.417969 122.8125 C 52.175781 121.398438 47.277344 119.863281 41.609375 114.871094 C 29.519531 104.214844 29.234375 91.566406 29.003906 88.585938 C 28.644531 83.949219 29.882812 77.058594 30.453125 75.171875 C 32.402344 68.722656 34.378906 62.742188 40.96875 55.621094 C 42.398438 54.078125 42.304688 53.992188 42.460938 53.898438 C 43.496094 53.257812 43.316406 54.230469 43.304688 54.304688 C 43.273438 54.476562 43.160156 54.625 43.097656 54.785156 C 43.050781 54.894531 42.699219 55.765625 42.589844 56.1875 C 40.953125 62.496094 42.246094 69.515625 47.089844 70.375 C 53.320312 71.484375 54.941406 64.839844 55.09375 63.597656 C 55.460938 60.558594 54.664062 58.152344 54.628906 57.976562 C 53.8125 54.230469 53.539062 54.3125 52.605469 50.605469 C 50.996094 44.199219 50.636719 41.722656 50.691406 37.164062 C 50.761719 31.652344 52.992188 25.34375 56.382812 20.992188 C 61.078125 14.96875 65.882812 12.308594 67.484375 11.304688 C 68.226562 10.84375 68.507812 10.40625 68.839844 11.21875 C 68.878906 11.320312 68.476562 12.089844 68.4375 12.164062 C 68.050781 12.90625 67.035156 15.542969 66.941406 15.839844 C 64.414062 23.675781 65.734375 28.519531 65.878906 29.320312 C 67.5 38.34375 72.925781 44.304688 73.25 44.746094 C 75.386719 47.601562 77.8125 50.085938 79.082031 51.46875 C 79.703125 52.144531 80.019531 52.695312 80.066406 52.730469 C 80.105469 52.757812 80.4375 52.996094 80.660156 52.742188 C 80.832031 52.550781 80.730469 51.613281 80.71875 51.515625 C 80.457031 49.09375 80.777344 45.398438 81.296875 43.636719 C 82.578125 39.292969 82.761719 39.359375 84.113281 37.15625 C 84.824219 35.992188 87.597656 33.304688 88.777344 32.574219 C 88.839844 32.535156 89.414062 32.175781 89.707031 32.511719 C 90.074219 32.933594 88.617188 34.757812 89.03125 40.882812 C 89.480469 47.519531 94.597656 56.121094 95.984375 58.585938 C 100.308594 66.304688 100.625 66.90625 101.007812 67.640625 C 102.871094 71.210938 102.820312 71.230469 103.699219 73.722656 C 104.101562 74.855469 106.460938 81.546875 105.992188 88.59375 C 105.316406 98.730469 102.105469 103.71875 101.101562 105.640625 C 100.570312 106.65625 98.371094 109.941406 97.132812 111.320312 C 95.054688 113.632812 93.261719 115.121094 92.898438 115.421875 C 89.589844 118.175781 88.3125 118.75 87.441406 119.285156 C 84.511719 121.09375 78.65625 123.214844 78.59375 123.195312 C 78.445312 123.152344 78.226562 122.660156 78.292969 122.511719 C 78.292969 122.511719 79.453125 121.683594 80.222656 120.871094 C 80.867188 120.191406 82.71875 117.769531 83.226562 116.863281 C 83.355469 116.632812 84.78125 114.082031 84.835938 113.960938 C 86.359375 110.664062 86.683594 107.246094 86.742188 106.644531 C 87.359375 100.082031 84.410156 91.46875 82.609375 88.191406 C 79.5625 82.652344 78.453125 81.011719 73.796875 76.210938 C 72.484375 74.855469 70.425781 73.195312 69.847656 72.628906 C 69.570312 72.351562 69.5625 72.378906 69.257812 72.117188 Z M 69.257812 72.117188 " fill-opacity="1" fill-rule="evenodd"/></g></svg>