<?xml version="1.0" encoding="UTF-8"?>
<!DOCTYPE svg PUBLIC "-//W3C//DTD SVG 1.1//EN" "http://www.w3.org/Graphics/SVG/1.1/DTD/svg11.dtd">
<!-- Creator: CorelDRAW (Versão OEM) -->
<svg xmlns="http://www.w3.org/2000/svg" xml:space="preserve" width="79.375mm" height="66.1458mm" version="1.1" style="shape-rendering:geometricPrecision; text-rendering:geometricPrecision; image-rendering:optimizeQuality; fill-rule:evenodd; clip-rule:evenodd"
viewBox="0 0 7937.5 6614.58"
 xmlns:xlink="http://www.w3.org/1999/xlink"
 xmlns:xodm="http://www.corel.com/coreldraw/odm/2003">
 <defs>
  <style type="text/css">
   <![CDATA[
    .fil0 {fill:#1C1C1A}
   ]]>
  </style>
 </defs>
 <g id="Camada_x0020_1">
  <metadata id="CorelCorpID_0Corel-Layer"/>
  <path class="fil0" d="M5892.52 2694.63l0 54.97c390.29,0 720.06,71.51 955.27,226.67 119.67,78.94 208.85,190.81 272.65,318.33 114.22,228.26 143.69,626.46 43.41,877.5 -45.19,113.13 -88.24,195.03 -170.72,282.81l-57.83 52.13c-134.82,126.07 -400.13,201 -596.11,201l-645.94 0 0 -3710.73c226.44,0 499.5,-21.04 707.88,61.75 183.07,72.75 319.6,195.27 392.67,376.96 128.94,320.6 92.61,842.28 -208.16,1065.27 -204.06,151.28 -419.8,193.34 -693.12,193.34zm-3937.49 -975.79c0,-156.15 -17.51,-461.82 15.02,-582.81 35.43,-131.74 168.17,-269.28 335.44,-269.28l103.07 0 0 -61.85 -1291.88 0 0 61.85c150.73,0 256.91,9.31 355.33,125.68 61.95,73.24 98.2,160.37 98.2,293.49l0 3051.05c0,376.19 -43.42,832.45 -273.84,1114.24 -158.88,194.32 -448.16,338.14 -709.79,322.99 -206.2,-11.94 -240.64,-44.08 -301.38,-49.14 -2.25,27.06 -14.04,40.48 -20.62,68.72 25.71,5.99 60.07,25.01 88.45,35.24 335.22,120.81 727.46,60.82 1025.18,-117.3l255.47 -211.8c75.67,-84.19 134.97,-190.9 178.04,-296.12 177.12,-432.86 143.31,-695.73 143.31,-1189.8l33.07 49.39c217.84,358.14 523.13,600.88 903.78,779.79 252.29,118.57 618.48,174.09 897.9,174.09 374.77,0 776.39,-84.08 1085.73,-288.61 128.32,-84.85 189.64,-131.62 304.18,-245.57 35.33,-35.15 98.22,-123.76 128.74,-146.12 0,219.26 -0.8,363.99 -172.12,473.83 -91.42,58.62 -167.42,55.3 -274.54,55.3 -0.68,30.27 -6.88,32.12 -6.88,68.71l1346.86 0c210.21,0 410.97,-13.74 578.67,-53.53 740.92,-175.79 1053.87,-794.31 812.08,-1488.4 -131.58,-377.72 -478.05,-623.91 -862.24,-697.64 -20.99,-4.03 -37.62,-3.74 -54.35,-14.36 246.53,-57.43 478.43,-289.89 570.44,-522.16 121.77,-307.42 73.04,-750.31 -166.72,-987.92 -45.73,-45.32 -89.41,-88.01 -141.53,-126.46 -219.09,-161.65 -520.72,-239.44 -811.93,-239.44l-1271.28 0c0,34.54 6.19,30.77 6.88,61.85l96.21 0c189.32,0 350.45,177.83 350.45,371.07l0 2618.13c0,87.57 -154.12,324.33 -208.09,396.62 -233.88,313.23 -592.88,490.31 -971.9,553.63 -373.02,62.32 -751.39,11.53 -1085.47,-155.34 -222.12,-110.95 -445.18,-327.01 -582.28,-537.81 -105.68,-162.49 -157.79,-282.54 -217.92,-462.38 -148.52,-444.13 -151.28,-1138.09 -1.72,-1583.97 142.58,-425.12 403.01,-793.07 806.58,-993.81 636.31,-316.52 1562.68,-203.68 1999.68,377.95l103.07 151.18c0,-87.04 0,-174.09 0,-261.12 0,-116.33 10.95,-146.65 -36.33,-224.8 -153.85,-254.31 -887.12,-393.66 -1186.84,-393.66 -291.69,0 -530.17,8.68 -799.56,86.89 -363.53,105.56 -617.52,261.64 -871.99,516.1 -88.23,88.23 -160.98,180.07 -232.01,283.36 -23.07,34.98 -41.05,78.33 -68.62,110.05z"/>
 </g>
</svg>
